<svg xmlns="http://www.w3.org/2000/svg" xmlns:xlink="http://www.w3.org/1999/xlink" viewBox="0 0 1103.77 160.49"><defs><style>.cls-1{fill:#fff;}.cls-2{fill:url(#linear-gradient);}.cls-3{fill:#a90f9e;}</style><linearGradient id="linear-gradient" x1="21.96" y1="82.42" x2="106.41" y2="-2.04" gradientUnits="userSpaceOnUse"><stop offset="0.37" stop-color="#a90f9e"/><stop offset="1" stop-color="#827df4"/></linearGradient></defs><g id="Layer_2" data-name="Layer 2"><g id="Layer_1-2" data-name="Layer 1"><path class="cls-1" d="M335.79,61l-16,20.66H279.46c-27.87,0-48.41-17.66-48.41-41,0-23.54,20.54-39.4,48.41-39.4h56.33l-16,20.9H279.46c-13.46,0-23.55,8.05-23.55,19.58S265.88,61,279.46,61Z"/><path class="cls-1" d="M458.43,81.68H425.15L407.26,60.42h-38.2V81.68H344.19V40.6H414.1c7.69,0,13.7-3.48,13.7-9,0-6.24-5.17-9.37-13.7-9.37H344.19l16.22-20.9h51.65c18.26,0,41.32,5.77,41.32,28.71,0,12.49-7.81,22.82-21,25.46,2.76,2,5.77,4.93,11.29,10.57Z"/><path class="cls-1" d="M501.3,81.68l15-20.66h20.18c4.81,0,10.45,0,14.3.24-2.16-2.88-5.53-7.81-8.17-11.65L528.21,28.35,490.49,81.68H461.06L512.59,9c3.36-4.69,8.29-9,16.1-9,7.44,0,12.37,4,15.85,9l50.21,72.67Z"/><path class="cls-1" d="M717.74,1.32,692.4,24.5c-11.17,10.09-14.9,13.34-17.9,15.62C677.38,42,681,45.4,694,57.54l25.71,24.14H684.59L657.2,55.13,629,81.68H598.11l26.18-24.14C636.54,46.25,640,43.36,643,41.08c-3-2.16-6.13-4.92-18.74-16.7L599.67,1.32h34.47l25.59,25,25.82-25Z"/><path class="cls-1" d="M753.77,81.68H728.91V1.32h24.86Z"/><path class="cls-1" d="M840.73,78.68,791.48,34.47V81.68H768.9V15c0-10.7,6.49-15,13.58-15,3,0,6,.72,10,4.32l49.24,44.21V1.32H864.4V67.87c0,10.69-6.49,15.13-13.7,15.13C847.58,83,844.58,82.28,840.73,78.68Z"/><path class="cls-1" d="M950.51,78.68,901.27,34.47V81.68H878.68V15c0-10.7,6.49-15,13.58-15,3,0,6,.72,10,4.32l49.24,44.21V1.32h22.71V67.87c0,10.69-6.49,15.13-13.7,15.13C957.36,83,954.36,82.28,950.51,78.68Z"/><path class="cls-1" d="M1103.77,41.44c0,28.71-19.69,41.56-58.73,41.56S986.3,70.15,986.3,41.44,1005.88,0,1045,0,1103.77,12.73,1103.77,41.44Zm-24.74,0c0-17.3-9-20.54-34-20.54s-34,3.24-34,20.54,9,20.66,34,20.66S1079,58.74,1079,41.44Z"/><path class="cls-1" d="M255.87,159.82h-4.51V124.49H238.12v-4.11h31v4.11H255.87Z"/><path class="cls-1" d="M342.57,124.44H318.52V137.9H340V142H318.52v13.8h24.34v4.06H314.07V120.38h28.5Z"/><path class="cls-1" d="M406.47,160.49c-11.38,0-19.78-9-19.78-20.33s8.34-20.45,19.95-20.45c7.15,0,11.43,2.53,15.38,6.25l-3,3.27c-3.32-3.16-7-5.41-12.39-5.41-8.73,0-15.27,7-15.27,16.22s6.59,16.34,15.27,16.34c5.41,0,9-2.08,12.73-5.69l2.93,2.87C418.13,157.73,413.62,160.49,406.47,160.49Z"/><path class="cls-1" d="M471.09,142.07v17.75h-4.45V120.38h4.45V137.9h22.76V120.38h4.45v39.44h-4.45V142.07Z"/><path class="cls-1" d="M575.09,120.38h4.34v39.44h-3.55l-25.46-32.34v32.34h-4.34V120.38h4.17L575.09,152Z"/><path class="cls-1" d="M645.52,160.49c-12,0-20-9.41-20-20.33s8.17-20.45,20.17-20.45,20.05,9.4,20.05,20.33S657.52,160.49,645.52,160.49Zm0-36.67c-9,0-15.43,7.21-15.43,16.22s6.53,16.34,15.55,16.34,15.43-7.21,15.43-16.22S654.54,123.82,645.52,123.82Z"/><path class="cls-1" d="M711.73,120.38h4.45v35.33h22.19v4.11H711.73Z"/><path class="cls-1" d="M799.28,160.49c-12,0-20.06-9.41-20.06-20.33s8.17-20.45,20.17-20.45,20.06,9.4,20.06,20.33S811.28,160.49,799.28,160.49Zm0-36.67c-9,0-15.44,7.21-15.44,16.22s6.54,16.34,15.55,16.34,15.44-7.21,15.44-16.22S808.29,123.82,799.28,123.82Z"/><path class="cls-1" d="M883.79,160.49c-12.39,0-20.06-9-20.06-20.33,0-10.88,7.95-20.45,19.78-20.45,6.65,0,10.76,1.91,14.7,5.24l-2.87,3.38a16.76,16.76,0,0,0-12-4.51c-8.73,0-15,7.38-15,16.22,0,9.47,6,16.45,15.61,16.45a18.56,18.56,0,0,0,11.38-3.94v-9.8h-12v-4h16.28v15.71A23.87,23.87,0,0,1,883.79,160.49Z"/><path class="cls-1" d="M951.12,120.38v39.44h-4.45V120.38Z"/><path class="cls-1" d="M1027.8,124.44h-24.06V137.9h21.52V142h-21.52v13.8h24.34v4.06H999.29V120.38h28.51Z"/><path class="cls-1" d="M1087.8,138c8.79,1.92,12.85,5.13,12.85,11.21,0,6.82-5.64,11.21-13.47,11.21a23.09,23.09,0,0,1-16.11-6.31l2.76-3.27c4.11,3.72,8.06,5.58,13.52,5.58,5.3,0,8.79-2.76,8.79-6.76,0-3.72-2-5.8-10.25-7.55-9.07-2-13.24-4.9-13.24-11.44,0-6.3,5.46-10.81,12.95-10.81a20.57,20.57,0,0,1,13.86,4.84l-2.59,3.44a17.34,17.34,0,0,0-11.38-4.28c-5.12,0-8.39,2.81-8.39,6.42C1077.1,134,1079.13,136.1,1087.8,138Z"/><path class="cls-2" d="M26.9,43.57a17,17,0,0,1,2-8.76,18.7,18.7,0,0,1,6.14-6.76,25.09,25.09,0,0,1,8.48-3.6,29.42,29.42,0,0,1,4.58-.68c1.56-.1,3-.09,4.55-.13l18-.39,18-.31-1.33.66L95,13.36l7.6-10.22,1.63,3.31-27.95.33L48.35,7A60.47,60.47,0,0,0,35.1,8.76a47.69,47.69,0,0,0-12.24,4.86A36.08,36.08,0,0,0,13,21.94a32.41,32.41,0,0,0-6,11.25A34.52,34.52,0,0,0,5.82,46,31.8,31.8,0,0,0,9.48,58.22a35.54,35.54,0,0,0,8,10.13,41.67,41.67,0,0,0,11.07,6.94A51,51,0,0,0,41.27,79a58.89,58.89,0,0,0,6.65.61l1.68,0h1.75l3.49,0c9.32.08,18.64.1,28,.24l4.12.06-2.16,3.43L73,102l-5.87,9.31-5.91,9.29-2.79-1.93L69.81,104.5,81.22,90.37,92.68,76.28c3.82-4.7,7.69-9.36,11.54-14h-.06l0-.07,0,.07h.06c-3.56,4.9-7.08,9.82-10.67,14.7L82.8,91.59,72,106.19,61.15,120.75l-2.79-1.93L64,109.34l5.62-9.46L80.84,81l2,3.5c-9.32.14-18.64.16-28,.24l-3.49,0H49.6c-.61,0-1.21,0-1.82,0a61.35,61.35,0,0,1-7.27-.56A53.4,53.4,0,0,1,26.4,80.28a47.08,47.08,0,0,1-12.56-7.79A41,41,0,0,1,4.56,60.84,37.61,37.61,0,0,1,.2,46.51,39,39,0,0,1,1.55,31.6a35.91,35.91,0,0,1,2.92-7,39.11,39.11,0,0,1,4.22-6.22A41.67,41.67,0,0,1,20.12,8.87c8.64-4.93,18.5-7,28.13-7.06l28,.19,27.95.33,4.2,0-2.56,3.26L98,15.66l-7.9,10-.54.68-.8,0-18-.31-18-.38c-1.5,0-3-.09-4.47-.07a29,29,0,0,0-4.36.42,24.11,24.11,0,0,0-8.2,3,18.57,18.57,0,0,0-6.24,6.13A16.68,16.68,0,0,0,26.9,43.57Z"/><path class="cls-3" d="M131.44,42.78c-7.83,10.82-20.11,27.55-28.16,38.39h-.65l.94-.46L88.31,101.23,87,98.61l9.21-.13-1.5.85v0l.49-.83h1l27.31-.33,2.07,0c.13,17.17.33,42.63.34,59.66l-2.41-2.42,24.07-.06-2.48,2.48c0-16.37.08-41.39.19-57.56l0-2.3,2.27,0,27.78.21-1.64.81,15.82-20,1.4,2.84c-6.86-.07-13.72-.21-20.58-.31-19.17-.33-42.72-.83-61.77-1.46,6.86-.21,13.73-.43,20.59-.59,20.48-.47,45-1,65.33-1.21l-2.16,2.88-15.34,20.42-.6.8h-1.05l-27.78.21,2.28-2.29.09,14.39c.06,10.63.06,34.8.1,45.65-3.31,0-25.64-.06-29-.07,0-1.05,0-15.3,0-16.8,0-9.07.22-33.77.29-43.17l2.09,2.09L96.25,102l1.5-.84h0l-.54.86-13.52-.19c.39-.36,16.95-21.32,18-22.55l.38-.48h.6l-.94.47C110.14,69,123,52.88,131.44,42.78Z"/></g></g></svg>